<?xml version="1.0" encoding="utf-8"?>
<!DOCTYPE svg PUBLIC "-//W3C//DTD SVG 1.1//EN" "http://www.w3.org/Graphics/SVG/1.1/DTD/svg11.dtd">
<svg version="1.1" id="Layer_1" xmlns="http://www.w3.org/2000/svg" xmlns:xlink="http://www.w3.org/1999/xlink" x="0px" y="0px"
	 width="52.867px" height="59.547px" viewBox="0 0 52.867 59.547" enable-background="new 0 0 52.867 59.547" xml:space="preserve">
<g>
	<g>
		<path fill="#222" d="M26.432,0L0,8.007l0.602,2.471c4.41,17.978,12.25,34.535,24.954,48.135l0.877,0.934l0.808-0.856
			c12.742-13.612,20.608-30.201,25.019-48.21l0.608-2.471L26.432,0z M51.405,10.266c-4.402,17.952-12.23,34.458-24.975,48
			c-12.749-13.543-20.575-30.049-24.979-48L1.043,8.602l25.389-7.687l25.383,7.693L51.405,10.266z"/>
		<path fill="#eee" d="M3.206,9.837l23.227-7.034V0.915L1.05,8.608l0.41,1.664c4.403,17.952,12.23,34.458,24.972,48v-2.631
			C15.987,44.57,7.808,28.608,3.206,9.837z"/>
		<path fill="#eee" d="M26.432,2.804l23.22,7.034c-4.603,18.771-12.781,34.733-23.22,45.798v2.631
			c12.742-13.543,20.576-30.047,24.974-48l0.408-1.664L26.432,0.915V2.804z"/>
		<path fill="#222" d="M26.432,55.636C36.87,44.572,45.049,28.61,49.652,9.838l-23.22-7.034L3.206,9.837
			C7.808,28.608,15.987,44.57,26.432,55.636z"/>
		<path fill="#eee" d="M26.803,46.17L8.083,13.498h7.469l11.378,20.55l10.849-20.55h6.517L26.803,46.17L26.803,46.17z"/>
	</g>
</g>
</svg>
