<?xml version="1.0" encoding="utf-8"?>
<!DOCTYPE svg PUBLIC "-//W3C//DTD SVG 1.1//EN" "http://www.w3.org/Graphics/SVG/1.1/DTD/svg11.dtd">
<svg version="1.1" id="Layer_1" xmlns="http://www.w3.org/2000/svg" xmlns:xlink="http://www.w3.org/1999/xlink" x="0px" y="0px"
	 width="64px" height="64px" viewBox="0 0 64 64" enable-background="new 0 0 64 64" xml:space="preserve">
<g>
	<g>
		<path fill="#222" d="M32.173,2.214L5.741,10.221l0.602,2.471c4.41,17.978,12.25,34.534,24.954,48.135l0.877,0.934l0.806-0.857
			c12.743-13.613,20.609-30.202,25.018-48.211l0.609-2.471L32.173,2.214z M57.146,12.48c-4.403,17.952-12.23,34.458-24.973,48
			c-12.749-13.543-20.576-30.048-24.979-48l-0.409-1.664l25.389-7.687l25.382,7.693L57.146,12.48z"/>
		<path fill="khaki" d="M8.947,12.051l23.226-7.034V3.129L6.791,10.822l0.41,1.664c4.403,17.952,12.23,34.457,24.973,48v-2.631
			C21.728,46.784,13.549,30.822,8.947,12.051z"/>
		<path fill="khaki" d="M32.173,5.018l23.22,7.034c-4.602,18.771-12.781,34.733-23.22,45.798v2.631
			c12.742-13.543,20.576-30.048,24.973-48l0.409-1.664L32.173,3.129V5.018z"/>
		<path fill="#222" d="M32.173,57.85c10.438-11.065,18.618-27.027,23.22-45.798l-23.22-7.034L8.947,12.051
			C13.549,30.822,21.728,46.784,32.173,57.85z"/>
		<path fill="khaki" d="M32.544,48.384l-18.72-32.672h7.469l11.379,20.55l10.848-20.55h6.516L32.544,48.384L32.544,48.384z"/>
	</g>
</g>
</svg>
